# xmcd
#
# Track frame offsets:
#	150
#	20012
#	42754
#	65661
#	95715
#	117515
#	142077
#	166836
#	190773
#	213550
#	232370
#	260777
#	284911
#	305786
#
# Disc length: 4394 seconds
#
# Revision: 1
# Processed by: cddbd v1.5.2PL0 Copyright (c) Steve Scherf et al.
# Submitted via: audiograbber 1.83.01
#
DISCID=eb11280e
DTITLE=Kenny G - Breathless (US-Album)
DYEAR=1992
DGENRE=Dream
TTITLE0=The Joy of Life
TTITLE1=Forever In Love
TTITLE2=In The Rain
TTITLE3=Sentimental
TTITLE4=By The Time This Night Is Over
TTITLE5=End Of The Night
TTITLE6=Alone
TTITLE7=Morning
TTITLE8=Even If My Heart Would Break
TTITLE9=G-Bop
TTITLE10=Sister Rose
TTITLE11=A Year Ago
TTITLE12=Homeland
TTITLE13=Natural Ride
EXTD=Trak 15 not on the U.S.Album
EXTT0=
EXTT1=
EXTT2=
EXTT3=
EXTT4=
EXTT5=
EXTT6=
EXTT7=
EXTT8=
EXTT9=
EXTT10=
EXTT11=
EXTT12=
EXTT13=
PLAYORDER=
